<svg width="213.41" height="70.5" xmlns="http://www.w3.org/2000/svg"><path data-name="-10%" d="M3.9 37.05A3.227 3.227 0 000 40.94v5.8a3.227 3.227 0 003.9 3.89h21.09a3.217 3.217 0 003.89-3.89v-5.8a3.217 3.217 0 00-3.89-3.89H3.9zM57.72 1.52a10.665 10.665 0 00-5.51 1.52l-17.2 9.97a5.264 5.264 0 00-2.42 2.24 3.868 3.868 0 00.52 2.99l3.33 5.98c1.33 2.54 3.29 3.04 5.89 1.52l9.21-5.22v44.55a3.238 3.238 0 003.9 3.9h7.69a3.238 3.238 0 003.9-3.9V5.41a3.227 3.227 0 00-3.9-3.89h-5.41zm19.99 45.03q0 11.025 6.88 17.43t19.15 6.41q12.255 0 19.04-6.36t6.8-17.48v-22.8q0-10.92-6.84-17.29t-19-6.37q-12.255 0-19.15 6.37t-6.88 17.29v22.8zm36.48.28a8.818 8.818 0 01-2.76 6.99q-2.76 2.415-7.69 2.42-5.13 0-7.89-2.42c-1.84-1.62-2.75-3.95-2.75-6.99V23.56c0-3.04.91-5.35 2.75-6.94s4.47-2.37 7.89-2.37q4.935 0 7.69 2.37 2.76 2.385 2.76 6.94v23.27zm24.18-25.55q0 6.645 4.23 10.4t12.11 3.75q7.875 0 12.11-3.75t4.23-10.4v-6.84q0-6.75-4.23-10.59T154.71 0q-7.89 0-12.11 3.85t-4.23 10.59v6.84zm59.47-19.76a11.568 11.568 0 00-4.37.57 8.123 8.123 0 00-2.76 2.66l-44.46 60.32a2.766 2.766 0 00-.61 2.76q.51 1.14 2.61 1.14h5.6a12.736 12.736 0 004.66-.57 9.17 9.17 0 002.94-2.85l44.27-60.33c.76-1.01.97-1.88.62-2.61s-1.16-1.09-2.42-1.09h-6.08zm-38.19 18.9q0 4.275-4.94 4.28c-3.3 0-4.94-1.43-4.94-4.28v-5.41c0-2.72 1.64-4.09 4.94-4.09s4.94 1.37 4.94 4.09v5.41zm21.09 35.82q0 6.75 4.23 10.5 4.215 3.75 12.11 3.75 7.875 0 12.11-3.75t4.23-10.5V49.4q0-6.75-4.23-10.55t-12.11-3.8q-7.89 0-12.11 3.8t-4.23 10.55v6.84zm21.28-.76q0 4.185-4.94 4.18c-3.3 0-4.94-1.39-4.94-4.18v-5.42c0-2.78 1.64-4.18 4.94-4.18s4.94 1.4 4.94 4.18v5.42z" fill="#61c9ef" fill-rule="evenodd" opacity=".4"/></svg>